<svg xmlns="http://www.w3.org/2000/svg" xmlns:xlink="http://www.w3.org/1999/xlink" width="1080" zoomAndPan="magnify" viewBox="0 0 810 809.999993" height="1080" preserveAspectRatio="xMidYMid meet" version="1.0"><defs><g/><clipPath id="9033a9ee3c"><rect x="0" width="291" y="0" height="727"/></clipPath></defs><rect x="-81" width="972" fill="#ffffff" y="-80.999999" height="971.999992" fill-opacity="1"/><rect x="-81" width="972" fill="#c6ffd1" y="-80.999999" height="971.999992" fill-opacity="1"/><g transform="matrix(1, 0, 0, 1, 258, 6)"><g clip-path="url(#9033a9ee3c)"><g fill="#292b2d" fill-opacity="1"><g transform="translate(5.259638, 581.594152)"><g><path d="M 92.734375 -250 C 92.734375 -233.332031 97.140625 -220.25 105.953125 -210.75 C 114.773438 -201.257812 126.84375 -196.515625 142.15625 -196.515625 C 158.238281 -196.515625 171.125 -201.359375 180.8125 -211.046875 C 190.507812 -220.734375 195.359375 -233.523438 195.359375 -249.421875 C 195.359375 -266.867188 190.992188 -280.382812 182.265625 -289.96875 C 173.546875 -299.5625 161.238281 -304.359375 145.34375 -304.359375 C 129.84375 -304.359375 117.195312 -299.269531 107.40625 -289.09375 C 97.625 -278.925781 92.734375 -265.894531 92.734375 -250 Z M 10.75 -60.171875 C 10.75 -69.859375 12.6875 -78.53125 16.5625 -86.1875 C 20.445312 -93.84375 26.941406 -101.546875 36.046875 -109.296875 C 39.535156 -112.398438 44.378906 -116.375 50.578125 -121.21875 C 62.984375 -130.519531 69.1875 -137.789062 69.1875 -143.03125 C 69.1875 -145.738281 62.398438 -156.878906 48.828125 -176.453125 C 35.265625 -196.023438 28.484375 -217.148438 28.484375 -239.828125 C 28.484375 -272.191406 38.945312 -299.128906 59.875 -320.640625 C 80.8125 -342.148438 106.300781 -352.90625 136.34375 -352.90625 C 139.832031 -352.90625 145.351562 -352.613281 152.90625 -352.03125 C 160.46875 -351.457031 166.285156 -351.171875 170.359375 -351.171875 C 179.078125 -351.171875 186.632812 -356.207031 193.03125 -366.28125 C 195.351562 -369.96875 197.289062 -372.875 198.84375 -375 C 204.65625 -383.144531 210.5625 -390.078125 216.5625 -395.796875 C 222.570312 -401.515625 226.550781 -404.375 228.5 -404.375 C 231.007812 -404.375 233.816406 -403.351562 236.921875 -401.3125 C 240.023438 -399.28125 245.160156 -395.066406 252.328125 -388.671875 C 262.984375 -379.367188 269.8125 -372.4375 272.8125 -367.875 C 275.820312 -363.320312 277.328125 -358.816406 277.328125 -354.359375 C 277.328125 -351.265625 271.804688 -348.648438 260.765625 -346.515625 C 258.046875 -345.929688 256.109375 -345.546875 254.953125 -345.359375 C 245.253906 -343.421875 238.128906 -341 233.578125 -338.09375 C 229.023438 -335.1875 226.75 -331.597656 226.75 -327.328125 C 226.75 -326.171875 231.738281 -317.113281 241.71875 -300.15625 C 251.695312 -283.195312 256.6875 -264.15625 256.6875 -243.03125 C 256.6875 -216.664062 250.628906 -194.421875 238.515625 -176.296875 C 226.410156 -158.179688 209.40625 -145.832031 187.5 -139.25 C 180.332031 -137.113281 170.253906 -134.207031 157.265625 -130.53125 C 108.046875 -116.769531 83.4375 -101.070312 83.4375 -83.4375 C 83.4375 -79.363281 85.273438 -76.160156 88.953125 -73.828125 C 92.640625 -71.503906 97.484375 -70.34375 103.484375 -70.34375 C 108.722656 -70.34375 123.890625 -74.894531 148.984375 -84 C 174.078125 -93.113281 195.25 -97.671875 212.5 -97.671875 C 234.207031 -97.671875 250.242188 -94.910156 260.609375 -89.390625 C 270.984375 -83.867188 276.171875 -75.289062 276.171875 -63.65625 C 276.171875 -59.007812 274.132812 -51.257812 270.0625 -40.40625 C 265.988281 -29.550781 260.660156 -18.3125 254.078125 -6.6875 C 252.140625 -2.613281 249.71875 0.628906 246.8125 3.046875 C 243.90625 5.472656 241.191406 6.6875 238.671875 6.6875 C 238.085938 6.6875 233.191406 2.375 223.984375 -6.25 C 214.773438 -14.875 204.648438 -19.1875 193.609375 -19.1875 C 184.691406 -19.1875 167.828125 -14.679688 143.015625 -5.671875 C 118.210938 3.335938 97.769531 7.84375 81.6875 7.84375 C 59.394531 7.84375 42 1.835938 29.5 -10.171875 C 17 -22.191406 10.75 -38.859375 10.75 -60.171875 Z M 10.75 -60.171875 "/></g></g></g></g></g></svg>