<svg xmlns="http://www.w3.org/2000/svg" xmlns:xlink="http://www.w3.org/1999/xlink" width="600" zoomAndPan="magnify" viewBox="80 320 640 180" height="180" preserveAspectRatio="xMidYMid meet" version="1.2"><defs/><g id="95443a21b7"><g style="fill:#292B2D;fill-opacity:1;"><g transform="translate(156.182876, 477.629489)"><path style="stroke:none" d="M 28.0625 -148.515625 L 49.09375 -148.515625 C 51.507812 -148.515625 53.238281 -148.117188 54.28125 -147.328125 C 55.320312 -146.535156 56.128906 -144.90625 56.703125 -142.4375 C 57.785156 -137.613281 58.644531 -130.269531 59.28125 -120.40625 C 59.914062 -110.539062 60.234375 -99.046875 60.234375 -85.921875 C 60.234375 -50.140625 57.613281 -26.410156 52.375 -14.734375 C 47.144531 -3.066406 37.742188 2.765625 24.171875 2.765625 C 17.703125 2.765625 11.894531 1.210938 6.75 -1.890625 C 1.613281 -5.003906 -0.953125 -8.210938 -0.953125 -11.515625 C -0.953125 -12.785156 -0.476562 -14.832031 0.46875 -17.65625 C 1.425781 -20.476562 3.078125 -24.710938 5.421875 -30.359375 C 6.503906 -33.015625 7.519531 -34.910156 8.46875 -36.046875 C 9.414062 -37.191406 10.429688 -37.765625 11.515625 -37.765625 C 12.523438 -37.765625 14.125 -35.6875 16.3125 -31.53125 C 18.5 -27.382812 20.925781 -25.3125 23.59375 -25.3125 C 26.445312 -25.3125 28.457031 -27.039062 29.625 -30.5 C 30.800781 -33.957031 31.390625 -40.03125 31.390625 -48.71875 C 31.390625 -84.300781 28.757812 -115 23.5 -140.8125 C 23.050781 -143.09375 22.828125 -144.425781 22.828125 -144.8125 C 22.828125 -145.957031 23.300781 -146.859375 24.25 -147.515625 C 25.207031 -148.179688 26.476562 -148.515625 28.0625 -148.515625 Z M 28.0625 -148.515625 "/></g><g transform="translate(229.637233, 477.629489)"><path style="stroke:none" d="M 59.28125 -74.21875 C 61.8125 -75.101562 63.695312 -76.335938 64.9375 -77.921875 C 66.175781 -79.503906 66.796875 -81.472656 66.796875 -83.828125 C 66.796875 -87.179688 65.445312 -89.921875 62.75 -92.046875 C 60.050781 -94.171875 56.546875 -95.234375 52.234375 -95.234375 C 46.140625 -95.234375 40.875 -92.679688 36.4375 -87.578125 C 32 -82.472656 29.78125 -76.71875 29.78125 -70.3125 C 29.78125 -69.039062 30.097656 -67.976562 30.734375 -67.125 C 31.367188 -66.269531 32.097656 -65.84375 32.921875 -65.84375 C 33.492188 -65.84375 34.0625 -65.90625 34.625 -66.03125 C 35.195312 -66.15625 35.894531 -66.378906 36.71875 -66.703125 Z M 6.65625 -54.703125 C 6.65625 -73.421875 10.890625 -88.28125 19.359375 -99.28125 C 27.828125 -110.289062 39.226562 -115.796875 53.5625 -115.796875 C 63.90625 -115.796875 72.34375 -113.003906 78.875 -107.421875 C 85.40625 -101.835938 88.671875 -94.671875 88.671875 -85.921875 C 88.671875 -78.691406 86.6875 -72.601562 82.71875 -67.65625 C 78.757812 -62.707031 72.4375 -58.488281 63.75 -55 C 61.082031 -53.914062 57.367188 -52.550781 52.609375 -50.90625 C 39.992188 -46.46875 33.6875 -41.644531 33.6875 -36.4375 C 33.6875 -32.695312 35.710938 -29.585938 39.765625 -27.109375 C 43.828125 -24.640625 49.03125 -23.40625 55.375 -23.40625 C 59.5625 -23.40625 63.476562 -24.003906 67.125 -25.203125 C 70.769531 -26.410156 73.925781 -28.128906 76.59375 -30.359375 C 81.15625 -34.285156 84.101562 -38.722656 85.4375 -43.671875 C 85.695312 -44.554688 85.921875 -45 86.109375 -45 C 87.441406 -45 88.457031 -43.90625 89.15625 -41.71875 C 89.851562 -39.53125 90.203125 -36.40625 90.203125 -32.34375 C 90.203125 -21.882812 86.632812 -13.453125 79.5 -7.046875 C 72.363281 -0.640625 62.894531 2.5625 51.09375 2.5625 C 37.132812 2.5625 26.238281 -2.492188 18.40625 -12.609375 C 10.570312 -22.722656 6.65625 -36.753906 6.65625 -54.703125 Z M 6.65625 -54.703125 "/></g><g transform="translate(325.92714, 477.629489)"><path style="stroke:none" d="M 118.265625 -113.21875 C 121.367188 -113.21875 123.285156 -112.394531 124.015625 -110.75 C 124.753906 -109.101562 125.125 -104.410156 125.125 -96.671875 C 125.125 -82.835938 123.867188 -70.148438 121.359375 -58.609375 C 118.847656 -47.066406 115.085938 -36.695312 110.078125 -27.5 C 105.453125 -18.875 100.929688 -11.738281 96.515625 -6.09375 C 92.109375 -0.445312 88.957031 2.375 87.0625 2.375 C 85.976562 2.375 84.421875 1.03125 82.390625 -1.65625 C 80.367188 -4.351562 77.894531 -8.273438 74.96875 -13.421875 C 73.507812 -16.078125 71.800781 -19.5 69.84375 -23.6875 C 67.550781 -28.445312 65.960938 -30.828125 65.078125 -30.828125 C 64.003906 -30.828125 62.453125 -28.671875 60.421875 -24.359375 C 58.390625 -20.046875 56.582031 -16.585938 55 -13.984375 C 51.695312 -8.660156 48.96875 -4.601562 46.8125 -1.8125 C 44.65625 0.976562 43.132812 2.375 42.25 2.375 C 40.40625 2.375 37.53125 -0.0976562 33.625 -5.046875 C 29.726562 -9.992188 26.003906 -16.175781 22.453125 -23.59375 C 16.804688 -35.269531 12.585938 -47.164062 9.796875 -59.28125 C 7.003906 -71.394531 5.609375 -83.921875 5.609375 -96.859375 C 5.609375 -104.347656 5.988281 -108.945312 6.75 -110.65625 C 7.507812 -112.363281 9.539062 -113.21875 12.84375 -113.21875 L 27.6875 -113.21875 C 29.207031 -113.21875 30.394531 -113.039062 31.25 -112.6875 C 32.113281 -112.34375 32.546875 -111.851562 32.546875 -111.21875 C 32.546875 -111.09375 32.476562 -110.554688 32.34375 -109.609375 C 31.457031 -103.078125 31.015625 -96.289062 31.015625 -89.25 C 31.015625 -75.988281 32.550781 -63.9375 35.625 -53.09375 C 38.707031 -42.25 41.707031 -36.828125 44.625 -36.828125 C 48.113281 -36.828125 51.09375 -41.660156 53.5625 -51.328125 C 56.039062 -61.003906 57.28125 -73.515625 57.28125 -88.859375 C 57.28125 -93.304688 57.054688 -97.75 56.609375 -102.1875 C 56.171875 -106.625 55.953125 -108.875 55.953125 -108.9375 C 55.953125 -110.53125 56.300781 -111.546875 57 -111.984375 C 57.695312 -112.429688 59.28125 -112.65625 61.75 -112.65625 L 76.015625 -112.65625 C 77.410156 -112.65625 78.316406 -112.507812 78.734375 -112.21875 C 79.148438 -111.9375 79.359375 -111.160156 79.359375 -109.890625 C 79.359375 -109.316406 79.210938 -107.460938 78.921875 -104.328125 C 78.640625 -101.191406 78.5 -98.320312 78.5 -95.71875 C 78.5 -79.226562 79.78125 -65.507812 82.34375 -54.5625 C 84.914062 -43.625 87.785156 -38.15625 90.953125 -38.15625 C 93.804688 -38.15625 96.597656 -42.40625 99.328125 -50.90625 C 102.054688 -59.40625 103.421875 -69.015625 103.421875 -79.734375 C 103.421875 -88.929688 103.101562 -98.066406 102.46875 -107.140625 C 102.34375 -108.785156 102.28125 -109.765625 102.28125 -110.078125 C 102.28125 -111.347656 102.707031 -112.1875 103.5625 -112.59375 C 104.414062 -113.007812 105.890625 -113.21875 107.984375 -113.21875 Z M 118.265625 -113.21875 "/></g></g><g style="fill:#292B2D;fill-opacity:1;"><g transform="translate(457.802445, 477.629489)"><path style="stroke:none" d="M 30.359375 -81.828125 C 30.359375 -76.367188 31.800781 -72.082031 34.6875 -68.96875 C 37.570312 -65.863281 41.519531 -64.3125 46.53125 -64.3125 C 51.789062 -64.3125 56.003906 -65.894531 59.171875 -69.0625 C 62.347656 -72.238281 63.9375 -76.429688 63.9375 -81.640625 C 63.9375 -87.347656 62.507812 -91.769531 59.65625 -94.90625 C 56.800781 -98.050781 52.773438 -99.625 47.578125 -99.625 C 42.503906 -99.625 38.363281 -97.957031 35.15625 -94.625 C 31.957031 -91.289062 30.359375 -87.023438 30.359375 -81.828125 Z M 3.515625 -19.6875 C 3.515625 -22.863281 4.148438 -25.703125 5.421875 -28.203125 C 6.691406 -30.710938 8.816406 -33.238281 11.796875 -35.78125 C 12.941406 -36.789062 14.53125 -38.085938 16.5625 -39.671875 C 20.613281 -42.722656 22.640625 -45.101562 22.640625 -46.8125 C 22.640625 -47.695312 20.421875 -51.34375 15.984375 -57.75 C 11.546875 -64.15625 9.328125 -71.070312 9.328125 -78.5 C 9.328125 -89.09375 12.75 -97.90625 19.59375 -104.9375 C 26.445312 -111.976562 34.789062 -115.5 44.625 -115.5 C 45.769531 -115.5 47.578125 -115.40625 50.046875 -115.21875 C 52.515625 -115.03125 54.414062 -114.9375 55.75 -114.9375 C 58.601562 -114.9375 61.078125 -116.585938 63.171875 -119.890625 C 63.929688 -121.085938 64.566406 -122.035156 65.078125 -122.734375 C 66.984375 -125.398438 68.914062 -127.664062 70.875 -129.53125 C 72.84375 -131.40625 74.144531 -132.34375 74.78125 -132.34375 C 75.601562 -132.34375 76.519531 -132.007812 77.53125 -131.34375 C 78.550781 -130.675781 80.238281 -129.296875 82.59375 -127.203125 C 86.070312 -124.160156 88.300781 -121.894531 89.28125 -120.40625 C 90.269531 -118.914062 90.765625 -117.441406 90.765625 -115.984375 C 90.765625 -114.960938 88.957031 -114.109375 85.34375 -113.421875 C 84.457031 -113.222656 83.820312 -113.09375 83.4375 -113.03125 C 80.269531 -112.394531 77.941406 -111.601562 76.453125 -110.65625 C 74.960938 -109.707031 74.21875 -108.535156 74.21875 -107.140625 C 74.21875 -106.753906 75.847656 -103.785156 79.109375 -98.234375 C 82.378906 -92.679688 84.015625 -86.453125 84.015625 -79.546875 C 84.015625 -70.921875 82.03125 -63.640625 78.0625 -57.703125 C 74.101562 -51.773438 68.539062 -47.734375 61.375 -45.578125 C 59.019531 -44.878906 55.71875 -43.925781 51.46875 -42.71875 C 35.363281 -38.21875 27.3125 -33.082031 27.3125 -27.3125 C 27.3125 -25.976562 27.910156 -24.929688 29.109375 -24.171875 C 30.316406 -23.410156 31.90625 -23.03125 33.875 -23.03125 C 35.582031 -23.03125 40.539062 -24.519531 48.75 -27.5 C 56.96875 -30.476562 63.898438 -31.96875 69.546875 -31.96875 C 76.648438 -31.96875 81.898438 -31.0625 85.296875 -29.25 C 88.691406 -27.445312 90.390625 -24.644531 90.390625 -20.84375 C 90.390625 -19.3125 89.722656 -16.769531 88.390625 -13.21875 C 87.054688 -9.664062 85.3125 -5.988281 83.15625 -2.1875 C 82.519531 -0.851562 81.726562 0.207031 80.78125 1 C 79.832031 1.789062 78.941406 2.1875 78.109375 2.1875 C 77.921875 2.1875 76.320312 0.773438 73.3125 -2.046875 C 70.300781 -4.867188 66.988281 -6.28125 63.375 -6.28125 C 60.445312 -6.28125 54.925781 -4.804688 46.8125 -1.859375 C 38.695312 1.085938 32.003906 2.5625 26.734375 2.5625 C 19.441406 2.5625 13.75 0.597656 9.65625 -3.328125 C 5.5625 -7.265625 3.515625 -12.71875 3.515625 -19.6875 Z M 3.515625 -19.6875 "/></g><g transform="translate(550.571871, 477.629489)"><path style="stroke:none" d="M 51.46875 -94.484375 C 44.875 -94.484375 39.609375 -91.421875 35.671875 -85.296875 C 31.742188 -79.171875 29.78125 -70.941406 29.78125 -60.609375 C 29.78125 -50.328125 31.695312 -42.171875 35.53125 -36.140625 C 39.375 -30.117188 44.5625 -27.109375 51.09375 -27.109375 C 57.25 -27.109375 62.289062 -30.328125 66.21875 -36.765625 C 70.15625 -43.210938 72.125 -51.601562 72.125 -61.9375 C 72.125 -71.832031 70.21875 -79.726562 66.40625 -85.625 C 62.601562 -91.53125 57.625 -94.484375 51.46875 -94.484375 Z M 6.84375 -56.140625 C 6.84375 -74.148438 10.929688 -88.546875 19.109375 -99.328125 C 27.296875 -110.109375 38.210938 -115.5 51.859375 -115.5 C 64.671875 -115.5 75.039062 -110.3125 82.96875 -99.9375 C 90.894531 -89.570312 94.859375 -75.796875 94.859375 -58.609375 C 94.859375 -40.335938 90.71875 -25.570312 82.4375 -14.3125 C 74.164062 -3.0625 63.367188 2.5625 50.046875 2.5625 C 37.171875 2.5625 26.75 -2.828125 18.78125 -13.609375 C 10.820312 -24.390625 6.84375 -38.566406 6.84375 -56.140625 Z M 6.84375 -56.140625 "/></g></g></g></svg> 